<?xml version="1.0" encoding="iso-8859-1"?>
<!-- Generator: Adobe Illustrator 24.0.0, SVG Export Plug-In . SVG Version: 6.00 Build 0)  -->
<svg version="1.1" id="Layer_1" xmlns="http://www.w3.org/2000/svg" xmlns:xlink="http://www.w3.org/1999/xlink" x="0px" y="0px"
	 viewBox="0 0 48 48" style="enable-background:new 0 0 48 48;" xml:space="preserve">
<path style="fill:#FFC107;" d="M40,41H8c-2.206,0-4-1.794-4-4V11c0-2.206,1.794-4,4-4h32c2.206,0,4,1.794,4,4v26
	C44,39.206,42.206,41,40,41z"/>
<path style="fill:#212121;" d="M34,12.98H14.02c-2.2,0-4,1.79-4,4V30c0,1.86,1.27,3.42,2.98,3.86v-2.14
	c-0.59-0.35-0.98-0.99-0.98-1.72V16.98c0-1.1,0.9-2,2-2H34c1.1,0,2,0.9,2,2V30c0,0.74-0.4,1.38-1,1.73v2.14c1.73-0.44,3-2.01,3-3.87
	V16.98C38,14.77,36.21,12.98,34,12.98z"/>
<path style="fill:#212121;" d="M16.5,28L16.5,28c0.828,0,1.5,0.672,1.5,1.5v5c0,0.828-0.672,1.5-1.5,1.5l0,0
	c-0.828,0-1.5-0.672-1.5-1.5v-5C15,28.672,15.672,28,16.5,28z"/>
<path style="fill:#212121;" d="M21.5,22L21.5,22c0.828,0,1.5,0.672,1.5,1.5v11c0,0.828-0.672,1.5-1.5,1.5l0,0
	c-0.828,0-1.5-0.672-1.5-1.5v-11C20,22.672,20.672,22,21.5,22z"/>
<path style="fill:#212121;" d="M26.5,25L26.5,25c0.828,0,1.5,0.672,1.5,1.5v8c0,0.828-0.672,1.5-1.5,1.5l0,0
	c-0.828,0-1.5-0.672-1.5-1.5v-8C25,25.672,25.672,25,26.5,25z"/>
<path style="fill:#212121;" d="M31.5,18L31.5,18c0.828,0,1.5,0.672,1.5,1.5v15c0,0.828-0.672,1.5-1.5,1.5l0,0
	c-0.828,0-1.5-0.672-1.5-1.5v-15C30,18.672,30.672,18,31.5,18z"/>
</svg>